<svg xmlns="http://www.w3.org/2000/svg" width="722.31" height="516.962" viewBox="0 0 722.31 516.962"><defs><style>.a{fill:#b1efe9;}.b{fill:#f5f5f5;opacity:0.48;}.c{fill:#ff615c;}.d{fill:#ff8170;}.e{fill:#fea56b;}.f{fill:#ff9844;}.g{fill:#b56616;}.h{fill:#572923;}.i{fill:#fff;}.j{fill:#c17017;}.k{fill:#d68029;}.l{fill:#504e78;}.m{fill:#7fcac7;}.n{fill:#e7eef7;}.o{fill:#c7d9ea;}.p{fill:#fffaff;}.q{fill:#6a6a93;}.r{fill:#00acbc;}.s{fill:#ffbf00;}.t{fill:#3f3f63;}.u{fill:#dceaf9;}.v{fill:#842d59;}.w{fill:#a04477;}.x{fill:#ff5473;}.y{fill:#feffff;}.z{fill:#c3d0e0;}</style></defs><g transform="translate(50.921 -54.08)"><g transform="translate(-50.921 54.08)"><path class="a" d="M291.738,205.94C182.376,205.94,93.72,294.6,93.72,403.958H489.743c0-109.373-88.658-198.025-198.018-198.018Z" transform="translate(73.861 7.676)"/><path class="b" d="M308.382,84.218c117.625,1.528,227.995,3.18,305.159,83.537s21.309,196.433,21.309,273.509c0,160.24-93.533,162.13-320.172,159.187C159.2,598.431-64.844,564.389-41.469,441.264s-47.743-153.7-19.868-234.64S81.743,81.274,308.382,84.218Z" transform="translate(67.921 -84.08)"/></g><g transform="translate(42.088 92.368)"><path class="c" d="M395.1,364.861l-56.956-92.554a16.793,16.793,0,0,0-20.331-6.858,97.785,97.785,0,0,0-82.325,0,16.793,16.793,0,0,0-20.408,6.858l-56.956,92.554A16.793,16.793,0,0,0,172.43,390.5H380.793A16.793,16.793,0,0,0,395.1,364.861ZM223.322,322.929v33.945h-20.9Zm106.4,33.945V322.929l20.9,33.945Z" transform="translate(-1.702 -16.397)"/><path class="d" d="M395.094,364.861l-56.956-92.554a16.793,16.793,0,0,0-20.331-6.858,97.785,97.785,0,0,0-82.325,0,16.793,16.793,0,0,0-20.408,6.858l-56.956,92.554a16.768,16.768,0,0,0,5,22.767,13.663,13.663,0,0,1-.859-1.372,16.665,16.665,0,0,1,.346-16.665l54.828-90.7A16.011,16.011,0,0,1,237,272.178a92.568,92.568,0,0,1,79.223,0A16.024,16.024,0,0,1,335.78,278.9l54.828,90.7a16.665,16.665,0,0,1,.346,16.665,13.679,13.679,0,0,1-.859,1.372,16.588,16.588,0,0,0,5.358-5.781A16.78,16.78,0,0,0,395.094,364.861Z" transform="translate(-1.697 -16.397)"/><path class="e" d="M238.36,220.82H268.2v50.354A14.922,14.922,0,0,1,253.282,286.1h0a14.922,14.922,0,0,1-14.922-14.922Z" transform="translate(21.628 -26.417)"/><path class="f" d="M238.36,253.522a14.922,14.922,0,1,0,29.843,0v-32.7H238.36Z" transform="translate(21.628 -26.417)"/><path class="e" d="M219.784,332.5h0a24.254,24.254,0,0,1,24.254,24.254V357H195.53v-.244A24.241,24.241,0,0,1,219.784,332.5Z" transform="translate(9.554 5.068)"/><path class="g" d="M274.2,227.021h10.4V195.383c0-8.461-4.653-15.383-10.4-15.383h0S267.684,194.627,274.2,227.021Z" transform="translate(30.915 -37.925)"/><path class="e" d="M223.52,183.86h67.942v53.4a33.945,33.945,0,0,1-34,33.945h0a33.945,33.945,0,0,1-33.945-33.945Z" transform="translate(17.444 -36.837)"/><path class="h" d="M243.7,216.814c0,3.192-1.936,5.794-4.32,5.794s-4.32-2.564-4.32-5.794,1.936-5.794,4.32-5.794S243.7,213.558,243.7,216.814Z" transform="translate(20.698 -29.18)"/><ellipse class="h" cx="4.32" cy="5.794" rx="4.32" ry="5.794" transform="translate(285.421 181.84)"/><path class="i" d="M239.91,229.3c2.307,7.6,7.23,12.819,12.935,12.819s10.627-5.256,12.935-12.819Z" transform="translate(22.065 -24.026)"/><path class="j" d="M243.023,204.153a17.1,17.1,0,0,0-7.82,1.038,3.243,3.243,0,0,1-3.846-1.141h0c-.795-1.282,0-3.2,1.961-3.936a22.626,22.626,0,0,1,10.255-1.372c2.064.205,3.359,1.846,2.923,3.282h0A3.256,3.256,0,0,1,243.023,204.153Z" transform="translate(19.568 -32.671)"/><path class="j" d="M268.493,211.35a17.306,17.306,0,0,0-7.82-1.09,3.243,3.243,0,0,1-3.436-2.154h0c-.423-1.436.885-3.064,2.936-3.256a22.69,22.69,0,0,1,10.255,1.436c1.923.744,2.73,2.679,1.936,3.936h0a3.256,3.256,0,0,1-3.871,1.128Z" transform="translate(26.928 -30.946)"/><path class="j" d="M228.216,227.021h-10.4V195.383c0-8.461,4.653-15.383,10.4-15.383h0S234.716,194.627,228.216,227.021Z" transform="translate(15.838 -37.925)"/><path class="e" d="M230.572,216.874a9.5,9.5,0,1,1-12.6,14.229c-3.923-3.487-7.063-9.23-2.243-14.678S226.637,213.388,230.572,216.874Z" transform="translate(14.558 -28.561)"/><path class="e" d="M273.934,216.874a9.5,9.5,0,0,0,12.6,14.229c3.923-3.487,7.063-9.23,2.243-14.678S277.87,213.388,273.934,216.874Z" transform="translate(30.754 -28.561)"/><path class="f" d="M226.84,183.87a64.3,64.3,0,0,1,1.167,7.922c8.82,6.166,25.446,6.41,35.83,5.666,6.41-.474,12.9-1.41,18.485-3.948a27.28,27.28,0,0,0,7.6-5.128v-4.5Z" transform="translate(18.38 -36.834)"/><path class="j" d="M234.569,169.053c7.974-3.846,17.947-4.179,27.164-2.82,5.128.756,11.191,2.948,16.37,2.564s10.6-5.743,11.64-9.807c6.038,4.858,9.038,14.87,7.871,21.652s-6.41,13.024-13.9,16.421c-5.589,2.564-12.076,3.474-18.485,3.948-11.255.846-29.856.462-37.906-7.333C219.762,186.346,225.6,173.412,234.569,169.053Z" transform="translate(17.536 -43.848)"/><path class="k" d="M236.415,176.062c7.448-4.846,17.332-6.41,26.625-6.166,5.128.128,11.448,1.551,16.549.538s9.807-7.012,10.345-11.178l.474.32c-.218-.192-.436-.4-.667-.577-1.038,4.064-6.41,9.448-11.64,9.807s-11.255-1.82-16.37-2.564c-9.179-1.359-19.229-1.064-27.164,2.82-8.973,4.359-14.806,17.293-7.243,24.638.179.167.385.308.564.474C226.762,187.651,230.556,179.87,236.415,176.062Z" transform="translate(17.536 -43.845)"/><path class="l" d="M519.826,382.541H81.41a10.96,10.96,0,0,1-10.96-10.96h0a10.96,10.96,0,0,1,10.96-10.96H519.826a10.96,10.96,0,0,1,10.96,10.96h0A10.96,10.96,0,0,1,519.826,382.541Z" transform="translate(-25.709 12.995)"/><path class="m" d="M467.829,399.641H114.66a10.96,10.96,0,0,1-10.96-10.96h0a10.96,10.96,0,0,1,10.96-10.96H467.829a10.96,10.96,0,0,1,10.96,10.96h0A10.96,10.96,0,0,1,467.829,399.641Z" transform="translate(-16.335 17.816)"/><path class="m" d="M408.4,416.741H152.66a10.96,10.96,0,0,1-10.96-10.96h0a10.96,10.96,0,0,1,10.96-10.96H408.4a10.96,10.96,0,0,1,10.96,10.96h0A10.96,10.96,0,0,1,408.4,416.741Z" transform="translate(-5.622 22.637)"/><path class="m" d="M197.75,241.133l-2.192-.269a2.141,2.141,0,0,1-1.82-1.577,1.885,1.885,0,0,0-.167-.564,2.153,2.153,0,0,1,.756-2.295l1.743-1.372a2.166,2.166,0,0,0,.372-3.051l-3.846-4.987a2.192,2.192,0,0,0-3.051-.372l-1.82,1.372a2.154,2.154,0,0,1-2.41.167l-.513-.295a2.141,2.141,0,0,1-1.09-2.141l.269-2.2a2.179,2.179,0,0,0-1.9-2.423l-6.281-.769a2.179,2.179,0,0,0-2.423,1.9l-.269,2.2a2.141,2.141,0,0,1-1.577,1.82l-.564.154a2.128,2.128,0,0,1-2.295-.744l-1.359-1.743a2.166,2.166,0,0,0-3.051-.372l-4.987,3.846a2.179,2.179,0,0,0-.385,3.051l1.372,1.743a2.154,2.154,0,0,1,.167,2.41c-.09.167-.192.333-.282.513a2.166,2.166,0,0,1-2.154,1.09l-2.192-.269a2.166,2.166,0,0,0-2.423,1.884l-.769,6.281a2.154,2.154,0,0,0,1.884,2.423l2.2.269a2.154,2.154,0,0,1,1.82,1.577l.154.577a2.141,2.141,0,0,1-.744,2.295l-1.743,1.359a2.166,2.166,0,0,0-.372,3.051l3.846,4.987a2.167,2.167,0,0,0,3.051.372l1.743-1.359a2.179,2.179,0,0,1,2.41-.179c.167.1.333.205.513.295a2.167,2.167,0,0,1,1.09,2.154l-.269,2.192a2.179,2.179,0,0,0,1.9,2.423l6.281.769a2.179,2.179,0,0,0,2.423-1.9l.269-2.192a2.115,2.115,0,0,1,1.577-1.82l.564-.167a2.154,2.154,0,0,1,2.295.756l1.359,1.743a2.179,2.179,0,0,0,3.051.372l4.987-3.846a2.166,2.166,0,0,0,.372-3.051l-1.359-1.743a2.154,2.154,0,0,1-.167-2.41l.282-.513a2.141,2.141,0,0,1,2.154-1.09l2.192.269a2.179,2.179,0,0,0,2.423-1.9l.769-6.281A2.166,2.166,0,0,0,197.75,241.133Zm-18.1,10.255a16.649,16.649,0,1,0,0-.051Z" transform="translate(-2.55 -26.553)"/><path class="m" d="M368.7,285.8l-1.346-.167a1.282,1.282,0,0,1-1.128-.974,1.722,1.722,0,0,0-.09-.346,1.282,1.282,0,0,1,.461-1.41l1.064-.833a1.282,1.282,0,0,0,.231-1.872l-2.4-3.064a1.282,1.282,0,0,0-1.872-.231l-1.077.833a1.282,1.282,0,0,1-1.474.1l-.32-.18a1.282,1.282,0,0,1-.667-1.282l.167-1.346a1.282,1.282,0,0,0-1.167-1.487l-3.846-.474a1.282,1.282,0,0,0-1.487,1.167l-.167,1.346a1.282,1.282,0,0,1-.961,1.128l-.359.09a1.282,1.282,0,0,1-1.41-.461l-.833-1.064a1.282,1.282,0,0,0-1.872-.231l-3.064,2.4a1.282,1.282,0,0,0-.231,1.872l.833,1.077a1.282,1.282,0,0,1,.1,1.474c0,.1-.115.205-.167.32a1.282,1.282,0,0,1-1.282.667l-1.359-.167a1.282,1.282,0,0,0-1.487,1.167l-.474,3.846a1.282,1.282,0,0,0,1.167,1.487l1.346.167a1.282,1.282,0,0,1,1.128.961,2.1,2.1,0,0,0,.09.359,1.282,1.282,0,0,1-.461,1.41l-1.064.833a1.282,1.282,0,0,0-.231,1.872l2.4,3.064a1.282,1.282,0,0,0,1.872.231l1.077-.833a1.282,1.282,0,0,1,1.474-.115,2.549,2.549,0,0,0,.32.18,1.282,1.282,0,0,1,.667,1.282l-.167,1.359a1.282,1.282,0,0,0,1.167,1.487l3.846.474a1.282,1.282,0,0,0,1.487-1.167l.167-1.346a1.282,1.282,0,0,1,.961-1.128l.359-.09a1.282,1.282,0,0,1,1.41.449l.833,1.077a1.282,1.282,0,0,0,1.872.231l3.064-2.4a1.282,1.282,0,0,0,.231-1.872L365.2,294.6a1.282,1.282,0,0,1-.1-1.474l.167-.321a1.282,1.282,0,0,1,1.282-.667l1.346.167a1.282,1.282,0,0,0,1.487-1.167l.474-3.846A1.282,1.282,0,0,0,368.7,285.8Zm-11.127,6.269a2.817,2.817,0,1,0,0-.013Z" transform="translate(50.566 -11.691)"/><path class="m" d="M375.731,248.5a3.269,3.269,0,0,0-3.269-3.269h-3.333a3.243,3.243,0,0,1-3.025-2.025c-.1-.269-.218-.551-.333-.82a3.23,3.23,0,0,1,.692-3.564l2.359-2.359a3.269,3.269,0,0,0,0-4.628l-6.743-6.73a3.269,3.269,0,0,0-4.628,0l-2.359,2.359a3.23,3.23,0,0,1-3.564.705l-.82-.346a3.23,3.23,0,0,1-2.025-3.013v-3.333a3.282,3.282,0,0,0-3.282-3.269h-9.525a3.282,3.282,0,0,0-3.269,3.282v3.333a3.23,3.23,0,0,1-2.025,3.012c-.282.115-.551.218-.82.346a3.231,3.231,0,0,1-3.564-.705l-2.359-2.359a3.3,3.3,0,0,0-4.628,0l-6.692,6.743a3.3,3.3,0,0,0,0,4.641l2.346,2.346a3.23,3.23,0,0,1,.705,3.564c-.115.269-.231.551-.333.82a3.23,3.23,0,0,1-3.013,2.025h-3.333a3.282,3.282,0,0,0-3.282,3.269v9.525a3.282,3.282,0,0,0,3.269,3.282h3.333a3.2,3.2,0,0,1,3.025,2.025c.1.269.218.538.333.82a3.256,3.256,0,0,1-.692,3.564L312.52,270.1a3.282,3.282,0,0,0,0,4.641l6.743,6.73a3.269,3.269,0,0,0,4.628,0l2.359-2.359a3.23,3.23,0,0,1,3.564-.705l.82.333a3.243,3.243,0,0,1,2.025,3.025V285.1a3.282,3.282,0,0,0,3.282,3.269h9.525a3.282,3.282,0,0,0,3.269-3.282v-3.333a3.23,3.23,0,0,1,2.025-3.013l.82-.346a3.23,3.23,0,0,1,3.564.705l2.359,2.346a3.269,3.269,0,0,0,4.628,0l6.743-6.743a3.282,3.282,0,0,0,0-4.628l-2.346-2.346a3.243,3.243,0,0,1-.705-3.564c.115-.269.231-.551.333-.82a3.23,3.23,0,0,1,3.012-2.038H372.5a3.282,3.282,0,0,0,3.282-3.269Zm-35.009,24.972a19.921,19.921,0,1,1,19.908-19.913,19.921,19.921,0,0,1-19.908,19.913Z" transform="translate(40.587 -27.153)"/><circle class="m" cx="9.896" cy="9.896" r="9.896" transform="matrix(0.199, -0.98, 0.98, 0.199, 369.597, 234.157)"/><path class="i" d="M116.55,282.877l72.082-16.447-30.894,53.264Z" transform="translate(-12.712 -13.559)"/><path class="n" d="M185.128,266.43l-54.764,31.933-1.384,22.382,7.6-16.832Z" transform="translate(-9.208 -13.559)"/><path class="o" d="M128.98,312.5l15.178-10.063-7.576-6.769Z" transform="translate(-9.208 -5.316)"/><path class="i" d="M343.593,203.544,296.7,192.84l20.1,34.65Z" transform="translate(38.075 -34.305)"/><path class="n" d="M296.7,192.84l35.624,20.78.9,14.563-4.935-10.96Z" transform="translate(38.075 -34.305)"/><path class="o" d="M327.361,222.82l-9.871-6.551,4.935-4.41Z" transform="translate(43.936 -28.943)"/><circle class="p" cx="54.43" cy="54.43" r="54.43" transform="translate(91.531 48.072)"/><path class="q" d="M153.232,189.833c-7.525,0-13.422-14.742-13.422-33.548s5.9-33.535,13.422-33.535,13.409,14.729,13.409,33.535S160.757,189.833,153.232,189.833Zm0-64.647c-5.307,0-10.986,12.5-10.986,31.1s5.679,31.112,10.986,31.112S164.2,174.9,164.2,156.285,158.526,125.186,153.232,125.186Z" transform="translate(-6.155 -54.065)"/><path class="q" d="M136.76,173.936c-4.423,0-7.538-1.282-8.973-3.756-3.769-6.512,6.051-18.985,22.331-28.382s32.048-11.665,35.766-5.128c1.9,3.295.474,8.115-4,13.588a68.647,68.647,0,0,1-18.331,14.806,68.251,68.251,0,0,1-22,8.473,30,30,0,0,1-4.794.4ZM176.9,135.3c-6.063,0-15.306,2.692-25.549,8.6-16.114,9.307-24.1,20.511-21.446,25.062,1.346,2.32,5.448,3.115,11.268,2.154a66.07,66.07,0,0,0,21.164-8.191,65.635,65.635,0,0,0,17.678-14.242c3.73-4.551,5.128-8.5,3.769-10.819C182.807,136.183,180.384,135.3,176.9,135.3Z" transform="translate(-9.771 -51.192)"/><path class="q" d="M176.931,173.933a30,30,0,0,1-4.794-.423,68.249,68.249,0,0,1-22.049-8.448h0c-16.28-9.409-26.1-21.882-22.331-28.394s19.46-4.256,35.753,5.128a68.377,68.377,0,0,1,18.344,14.793c4.474,5.474,5.9,10.255,4,13.588C184.469,172.651,181.354,173.933,176.931,173.933ZM151.37,162.921a66.018,66.018,0,0,0,21.177,8.191c5.807.949,9.909.167,11.255-2.154s0-6.256-3.769-10.819A65.878,65.878,0,0,0,162.356,143.9c-16.114-9.307-29.779-10.627-32.433-6.038S135.256,153.614,151.37,162.921Z" transform="translate(-9.78 -51.189)"/><circle class="r" cx="4.871" cy="4.871" r="4.871" transform="translate(114.978 88.773)"/><circle class="s" cx="4.871" cy="4.871" r="4.871" transform="translate(162.332 79.017)"/><circle class="c" cx="4.871" cy="4.871" r="4.871" transform="translate(137.321 126.564)"/><circle class="q" cx="4.871" cy="4.871" r="4.871" transform="translate(142.206 97.349)"/><circle class="p" cx="54.43" cy="54.43" r="54.43" transform="translate(349.428 48.854)"/><path class="t" d="M332.54,142.53v21.421c0,3.41,10.55,6.179,23.562,6.179s23.562-2.769,23.562-6.179V142.53Z" transform="translate(48.179 -48.488)"/><path class="l" d="M320.572,139.9c-1.59.526-1.59,1.41,0,1.949l38.24,13.319a9.832,9.832,0,0,0,5.7,0l33.74-12.447c1.564-.577,1.551-1.5,0-2.051l-36.009-12.576a10.409,10.409,0,0,0-5.743,0Z" transform="translate(44.469 -52.674)"/><path class="s" d="M371.528,171.859a1.282,1.282,0,0,1-1.282-1.282V147.515l-19.46-7.422a1.367,1.367,0,0,1,.949-2.564l20.331,7.768a1.282,1.282,0,0,1,.859,1.282v23.933a1.282,1.282,0,0,1-1.4,1.346Z" transform="translate(53.071 -49.922)"/><path class="s" d="M369.857,174.648h-4.4a1.82,1.82,0,0,1-1.782-2.192l1.859-8.768a2.154,2.154,0,0,1,2.115-1.718h0a2.179,2.179,0,0,1,2.128,1.718l1.846,8.768a1.807,1.807,0,0,1-1.769,2.192Z" transform="translate(56.947 -43.008)"/><circle class="p" cx="54.43" cy="54.43" r="54.43" transform="matrix(0.245, -0.97, 0.97, 0.245, 0, 247.612)"/><path class="u" d="M87.418,266.979l-15.78-13.588a1.41,1.41,0,0,1-.487-1.064v-42.97a1.41,1.41,0,0,1,2.32-1.064L87.418,220.3Z" transform="translate(-25.511 -30.043)"/><path class="o" d="M88.957,266.56,66.485,255.74a1.423,1.423,0,0,1-.795-1.282V210.873a1.4,1.4,0,0,1,2.013-1.282l21.254,10.255Z" transform="translate(-27.051 -29.623)"/><path class="v" d="M87.99,265.507l-27.754-6.743a1.385,1.385,0,0,1-1.077-1.359V213.628a1.4,1.4,0,0,1,1.731-1.359l27.125,6.576Z" transform="translate(-28.892 -28.839)"/><path class="u" d="M90.39,266.979l15.78-13.588a1.41,1.41,0,0,0,.487-1.064v-42.97a1.41,1.41,0,0,0-2.32-1.064L90.39,220.3Z" transform="translate(-20.087 -30.043)"/><path class="o" d="M90.39,266.56l22.472-10.819a1.423,1.423,0,0,0,.795-1.282V210.873a1.4,1.4,0,0,0-2.013-1.282L90.39,219.847Z" transform="translate(-20.087 -29.623)"/><path class="v" d="M92.58,265.507l27.779-6.743a1.385,1.385,0,0,0,1.077-1.359V213.628a1.4,1.4,0,0,0-1.731-1.359L92.58,218.845Z" transform="translate(-19.47 -28.839)"/><rect class="w" width="13.999" height="49.469" rx="1.78" transform="translate(59.099 188.609)"/><path class="w" d="M116.856,231.542l-20.126,4.2v-9.1l20.126-4.2Z" transform="translate(-18.3 -25.96)"/><path class="x" d="M102.594,247.513A1.077,1.077,0,0,0,102.3,247V215.875a.705.705,0,0,0-.705-.705h-8c-.385,0-2.077,1.41-1.692,1.41h8.973V247a.974.974,0,0,0-.282.5l-.859,4.064a.833.833,0,0,0,.82,1.013h2.038a.846.846,0,0,0,.82-1.013Z" transform="translate(-19.677 -28.01)"/><circle class="p" cx="54.43" cy="54.43" r="54.43" transform="translate(419.858 163.534) rotate(-11.07)"/><path class="s" d="M433.567,232.605a17.2,17.2,0,1,0-31.368,9.755,38.881,38.881,0,0,1,6.807,22.152v1.654h14.7V264.5a41.739,41.739,0,0,1,7.115-22.613A17.088,17.088,0,0,0,433.567,232.605Z" transform="translate(66.961 -27.947)"/><path class="c" d="M412.607,252.165a.6.6,0,0,1-.564-.423L406,232.141a.615.615,0,0,1,.218-.654.6.6,0,0,1,.679,0l5.192,3.359,1.769-3.756a.615.615,0,0,1,1.077,0l1.769,3.756,5.128-3.359a.59.59,0,0,1,.884.679l-6.025,19.6a.628.628,0,0,1-.756.4.6.6,0,0,1-.385-.756l5.551-18.024-4.32,2.807a.6.6,0,0,1-.872-.244l-1.513-3.23-1.525,3.23a.615.615,0,0,1-.372.32.641.641,0,0,1-.487-.077l-4.384-2.833,5.551,18.024a.615.615,0,0,1-.4.756Z" transform="translate(68.884 -23.611)"/><path class="t" d="M414.625,264.291h0a9.435,9.435,0,0,1-9.435-9.435v-7.922a3.474,3.474,0,0,1,3.474-3.474h11.922a3.474,3.474,0,0,1,3.474,3.474v7.922a9.448,9.448,0,0,1-9.435,9.435Z" transform="translate(68.661 -20.035)"/><path class="s" d="M423.332,218.733a1.218,1.218,0,0,1-.859-2.077l8.973-8.973a1.218,1.218,0,1,1,1.718,1.718l-8.973,8.973A1.282,1.282,0,0,1,423.332,218.733Z" transform="translate(73.44 -30.24)"/><path class="s" d="M404.928,218.705a1.282,1.282,0,0,1-.859-.359l-8.973-8.973a1.218,1.218,0,0,1,1.718-1.718l8.973,8.973a1.218,1.218,0,0,1-.859,2.077Z" transform="translate(65.731 -30.212)"/><path class="s" d="M413.172,216.024a1.282,1.282,0,0,1-1.282-1.282v-12.7a1.282,1.282,0,0,1,1.282-1.218,1.2,1.2,0,0,1,1.205,1.218v12.7a1.205,1.205,0,0,1-1.205,1.282Z" transform="translate(70.549 -32.056)"/><path class="l" d="M425.794,249.567H404.77a1.91,1.91,0,0,1-1.91-1.91h0a1.91,1.91,0,0,1,1.91-1.9h21.023a1.9,1.9,0,0,1,1.9,1.9h0a1.9,1.9,0,0,1-1.9,1.91Z" transform="translate(68.004 -19.386)"/><path class="l" d="M425.794,253.84H404.77a1.91,1.91,0,0,1-1.91-1.91h0a1.91,1.91,0,0,1,1.91-1.91h21.023a1.91,1.91,0,0,1,1.9,1.91h0a1.91,1.91,0,0,1-1.9,1.91Z" transform="translate(68.004 -18.185)"/><path class="l" d="M425.794,258.077H404.77a1.91,1.91,0,0,1-1.91-1.91h0a1.91,1.91,0,0,1,1.91-1.9h21.023a1.9,1.9,0,0,1,1.9,1.9h0a1.91,1.91,0,0,1-1.9,1.91Z" transform="translate(68.004 -16.987)"/><path class="s" d="M306.057,128.153l-2.192-.269a2.192,2.192,0,0,1-1.833-1.577l-.154-.564a2.128,2.128,0,0,1,.743-2.295l1.743-1.372a2.166,2.166,0,0,0,.372-3.051l-3.846-4.987a2.166,2.166,0,0,0-3.051-.372l-1.743,1.359a2.128,2.128,0,0,1-2.41.179l-.513-.295a2.166,2.166,0,0,1-1.09-2.154l.269-2.192a2.166,2.166,0,0,0-1.884-2.423l-6.281-.769a2.179,2.179,0,0,0-2.423,1.9l-.269,2.192a2.192,2.192,0,0,1-1.628,1.846l-.577.154a2.166,2.166,0,0,1-2.295-.744l-1.359-1.743a2.179,2.179,0,0,0-3.051-.385l-4.987,3.846a2.179,2.179,0,0,0-.372,3.064l1.359,1.743a2.115,2.115,0,0,1,.18,2.4l-.295.513a2.128,2.128,0,0,1-2.154,1.09l-2.192-.269a2.179,2.179,0,0,0-2.423,1.9l-.769,6.281a2.179,2.179,0,0,0,1.9,2.423l2.192.269a2.141,2.141,0,0,1,1.82,1.577,1.784,1.784,0,0,0,.167.564,2.141,2.141,0,0,1-.756,2.295l-1.743,1.372a2.192,2.192,0,0,0-.372,3.051l3.846,4.987a2.166,2.166,0,0,0,3.051.372l1.743-1.359a2.128,2.128,0,0,1,2.41-.18l.513.295a2.141,2.141,0,0,1,1.09,2.154l-.269,2.192a2.179,2.179,0,0,0,1.9,2.423l6.281.769a2.179,2.179,0,0,0,2.423-1.9l.269-2.192a2.167,2.167,0,0,1,1.577-1.833,2.167,2.167,0,0,0,.564-.154,2.154,2.154,0,0,1,2.295.744l1.372,1.743a2.179,2.179,0,0,0,3.051.385l4.987-3.846a2.2,2.2,0,0,0,.372-3.064l-1.372-1.743a2.128,2.128,0,0,1-.167-2.4l.295-.513a2.09,2.09,0,0,1,2.141-1.09l2.2.269a2.179,2.179,0,0,0,2.423-1.9l.769-6.281a2.179,2.179,0,0,0-1.846-2.436Zm-18.1,10.255a10.16,10.16,0,1,0-.013-.051Z" transform="translate(27.988 -58.404)"/><path class="c" d="M221.43,75.259v55.866a6.089,6.089,0,0,0,6.089,6.089H248.03l10.422,12.55,10.422-12.55h20.511a6.089,6.089,0,0,0,6.089-6.089V75.259a6.089,6.089,0,0,0-6.089-6.089H227.519A6.089,6.089,0,0,0,221.43,75.259Z" transform="translate(16.855 -69.17)"/><path class="y" d="M254.951,78.2c8.679,0,14.742,4.91,14.742,13.524,0,8.025-5.371,12.229-12.973,12.819a1.923,1.923,0,0,0-1.795,1.833l-.064,1.282a1.948,1.948,0,0,1-1.948,1.846h-4.064a1.936,1.936,0,0,1-1.949-1.884l-.205-6.948a1.949,1.949,0,0,1,1.948-2.013h.859c6.64,0,11.614-1.205,11.537-6.948a5.576,5.576,0,0,0-6.089-6.076c-3.333,0-5.5,1.641-6.051,4.487a1.961,1.961,0,0,1-1.936,1.513H242.44a1.936,1.936,0,0,1-1.987-2.154C241.273,82.9,246.516,78.2,254.951,78.2Zm-4.141,46.508a5.256,5.256,0,1,1,3.815-1.47,5.23,5.23,0,0,1-3.815,1.47Z" transform="translate(22.215 -66.624)"/><path class="r" d="M226.009,154.531a23.626,23.626,0,1,1,23.613-23.621,23.626,23.626,0,0,1-23.613,23.621Z" transform="translate(11.482 -58.426)"/><path class="y" d="M218.469,119.339c.1.192.205.4.295.551s.256.295.359.449a4.164,4.164,0,0,0,.487.436,1.768,1.768,0,0,0,.6.308,2.9,2.9,0,0,0,.641.192,3.037,3.037,0,0,0,.654,0,2.707,2.707,0,0,0,.641,0,2.143,2.143,0,0,0,.551-.192h0a4.7,4.7,0,0,0,.59-.346,3.219,3.219,0,0,0,.449-.4h0a3.265,3.265,0,0,0,.346-.449,1.678,1.678,0,0,0,.256-.5v-.1a4.066,4.066,0,0,0,.192-.641,2.81,2.81,0,0,0,0-.654,2.708,2.708,0,0,0,0-.641,5.782,5.782,0,0,0-.192-.641,2.833,2.833,0,0,0-.6-.9l-.1-.1a3.408,3.408,0,0,0-.5-.4c-.192-.1-.346-.205-.538-.295a2.794,2.794,0,0,0-.6-.205,2.921,2.921,0,0,0-.641,0,2.808,2.808,0,0,0-.654,0,2.693,2.693,0,0,0-.59.205h0a3.663,3.663,0,0,0-.551.295,5.678,5.678,0,0,0-.5.4,4.167,4.167,0,0,0-.4.449c-.09.141-.192.346-.295.551a2.644,2.644,0,0,0-.192.59,2.924,2.924,0,0,0,0,.641,2.81,2.81,0,0,0,0,.654,4.8,4.8,0,0,0,.295.743Z" transform="translate(15.932 -56.307)"/><path class="y" d="M225.752,135.511h-1.141V123.282A1.282,1.282,0,0,0,223.329,122h-5.217a1.282,1.282,0,0,0-1.282,1.282v2.692a1.282,1.282,0,0,0,1.282,1.282h1.038v8.256h-1.038a1.282,1.282,0,0,0-1.282,1.282v2.692a1.282,1.282,0,0,0,1.282,1.282H225.8a1.282,1.282,0,0,0,1.282-1.282v-2.692a1.282,1.282,0,0,0-1.333-1.282Z" transform="translate(15.558 -54.276)"/><path class="y" d="M97.821,312.794a2.641,2.641,0,1,1-1.474-3.423,2.641,2.641,0,0,1,1.474,3.423Z" transform="translate(-19.429 -1.506)"/><circle class="y" cx="2.628" cy="2.628" r="2.628" transform="translate(30.845 287.727)"/><circle class="y" cx="1.577" cy="1.577" r="1.577" transform="translate(61.304 277.933)"/><circle class="y" cx="1.577" cy="1.577" r="1.577" transform="translate(110.67 355.104)"/><path class="y" d="M96.65,331.923a7.307,7.307,0,1,1-.075-5.6,7.307,7.307,0,0,1,.075,5.6Z" transform="translate(-22.296 2.081)"/><circle class="y" cx="4.384" cy="4.384" r="4.384" transform="translate(116.747 337.568)"/><circle class="y" cx="4.384" cy="4.384" r="4.384" transform="translate(36.101 346.336)"/><path class="y" d="M403.341,312.794a2.641,2.641,0,1,0,1.474-3.423A2.641,2.641,0,0,0,403.341,312.794Z" transform="translate(68.087 -1.506)"/><circle class="y" cx="2.628" cy="2.628" r="2.628" transform="translate(513.718 287.727)"/><circle class="y" cx="1.577" cy="1.577" r="1.577" transform="translate(485.362 277.933)"/><circle class="y" cx="1.577" cy="1.577" r="1.577" transform="translate(435.996 355.104)"/><path class="y" d="M406.564,331.923a7.307,7.307,0,1,0,.075-5.6A7.307,7.307,0,0,0,406.564,331.923Z" transform="translate(68.901 2.081)"/><circle class="y" cx="4.384" cy="4.384" r="4.384" transform="translate(424.304 337.568)"/><circle class="y" cx="4.384" cy="4.384" r="4.384" transform="translate(504.95 346.336)"/><path class="z" d="M337.818,363.237H190.4A11.627,11.627,0,0,1,178.77,351.61H349.393a11.627,11.627,0,0,1-11.576,11.627Z" transform="translate(4.829 10.455)"/><path class="i" d="M332.59,370.8H214.73a5.128,5.128,0,0,1-5.038-6.345l17.947-76.915a5.128,5.128,0,0,1,5.038-4h117.86a5.128,5.128,0,0,1,5.038,6.346L337.628,366.8A5.128,5.128,0,0,1,332.59,370.8Z" transform="translate(13.505 -8.735)"/><path class="u" d="M335.773,370.8H217.9a5.128,5.128,0,0,1-5.038-6.345l17.947-76.915a5.128,5.128,0,0,1,5.038-4h117.86a5.128,5.128,0,0,1,5.038,6.346L340.8,366.8A5.128,5.128,0,0,1,335.773,370.8Z" transform="translate(14.399 -8.735)"/><circle class="i" cx="13.678" cy="13.678" r="13.678" transform="translate(286.511 304.738)"/></g></g></svg>